<svg version="1.1" xmlns="http://www.w3.org/2000/svg" xmlns:xlink="http://www.w3.org/1999/xlink" width="64px" height="64px" viewBox="0,0,256,256"><g fill="none" fill-rule="nonzero" stroke="none" stroke-width="1" stroke-linecap="butt" stroke-linejoin="miter" stroke-miterlimit="10" stroke-dasharray="" stroke-dashoffset="0" font-family="none" font-weight="none" font-size="none" text-anchor="none" style="mix-blend-mode: normal"><g transform="scale(4,4)"><path d="M7,9h-2c-1.105,0 -2,0.895 -2,2v40c0,1.105 0.895,2 2,2h21.22c1.046,0 1.958,0.712 2.212,1.727v0.001c0.334,1.335 1.534,2.272 2.91,2.272h3.315c1.377,0 2.577,-0.937 2.91,-2.272v-0.001c0.255,-1.015 1.167,-1.727 2.213,-1.727h21.22c1.105,0 2,-0.895 2,-2v-40c0,-1.105 -0.895,-2 -2,-2h-2z" fill="#e9e9e9"></path><path d="M33,53v0c0,-2.209 -1.791,-4 -4,-4h-20c-1.105,0 -2,-0.895 -2,-2v-38c0,-1.105 0.895,-2 2,-2h20c2.209,0 4,1.791 4,4v2.833zM33,37v-26c0,-2.209 1.791,-4 4,-4h20c1.105,0 2,0.895 2,2v38c0,1.105 -0.895,2 -2,2h-20c-2.209,0 -4,1.791 -4,4v0z" fill="#faefde"></path><path d="M33,52l-2.333,-3h-23.667v-42h22c2.209,0 4,1.791 4,4zM33,52l2.333,-3h23.667v-42h-22c-2.209,0 -4,1.791 -4,4z" fill="#faefde"></path><path d="M39,7h-2c-2.209,0 -4,1.791 -4,4v41l2.333,-3h3.667z" fill="#efd8be"></path><path d="M7,7h5v42h-5z" fill="#fff7f0"></path><path d="M61,8h-1.184c-0.414,-1.161 -1.514,-2 -2.816,-2h-20c-1.641,0 -3.088,0.806 -4,2.031c-0.912,-1.225 -2.359,-2.031 -4,-2.031h-20c-1.302,0 -2.402,0.839 -2.816,2h-1.184c-1.654,0 -3,1.346 -3,3v40c0,1.654 1.346,3 3,3h21.22c0.589,0 1.1,0.398 1.242,0.97c0.445,1.784 2.041,3.03 3.88,3.03h3.315c1.839,0 3.435,-1.246 3.881,-3.031c0.143,-0.571 0.653,-0.969 1.242,-0.969h21.22c1.654,0 3,-1.346 3,-3v-40c0,-1.654 -1.346,-3 -3,-3zM9,8h20c1.654,0 3,1.346 3,3v2.833v23.167c0,0.553 0.448,1 1,1c0.552,0 1,-0.447 1,-1v-23.167v-2.833c0,-1.654 1.346,-3 3,-3h20c0.551,0 1,0.448 1,1v38c0,0.552 -0.449,1 -1,1h-20c-1.641,0 -3.088,0.806 -4,2.031c-0.912,-1.225 -2.359,-2.031 -4,-2.031h-20c-0.551,0 -1,-0.448 -1,-1v-38c0,-0.552 0.449,-1 1,-1zM62,51c0,0.552 -0.449,1 -1,1h-21.22c-1.508,0 -2.817,1.021 -3.183,2.485c-0.222,0.892 -1.02,1.515 -1.939,1.515h-3.315c-0.919,0 -1.717,-0.623 -1.94,-1.516c-0.366,-1.463 -1.675,-2.484 -3.183,-2.484h-21.22c-0.551,0 -1,-0.448 -1,-1v-40c0,-0.552 0.449,-1 1,-1h1v37c0,1.654 1.346,3 3,3h20c1.654,0 3,1.346 3,3c0,0.553 0.448,1 1,1c0.552,0 1,-0.447 1,-1c0,-1.654 1.346,-3 3,-3h20c1.654,0 3,-1.346 3,-3v-37h1c0.551,0 1,0.448 1,1z" fill="#8d6c9f"></path><path d="M33,46c0.552,0 1,-0.447 1,-1v-4c0,-0.553 -0.448,-1 -1,-1c-0.552,0 -1,0.447 -1,1v4c0,0.553 0.448,1 1,1zM12,16c0.552,0 1,-0.447 1,-1v-2c0,-0.553 -0.448,-1 -1,-1c-0.552,0 -1,0.447 -1,1v2c0,0.553 0.448,1 1,1zM17,16c0.552,0 1,-0.447 1,-1v-2c0,-0.553 -0.448,-1 -1,-1c-0.552,0 -1,0.447 -1,1v2c0,0.553 0.448,1 1,1zM22,16c0.552,0 1,-0.447 1,-1v-2c0,-0.553 -0.448,-1 -1,-1c-0.552,0 -1,0.447 -1,1v2c0,0.553 0.448,1 1,1zM27,16c0.552,0 1,-0.447 1,-1v-2c0,-0.553 -0.448,-1 -1,-1c-0.552,0 -1,0.447 -1,1v2c0,0.553 0.448,1 1,1zM39,16c0.552,0 1,-0.447 1,-1v-2c0,-0.553 -0.448,-1 -1,-1c-0.552,0 -1,0.447 -1,1v2c0,0.553 0.448,1 1,1zM44,16c0.552,0 1,-0.447 1,-1v-2c0,-0.553 -0.448,-1 -1,-1c-0.552,0 -1,0.447 -1,1v2c0,0.553 0.448,1 1,1zM49,16c0.552,0 1,-0.447 1,-1v-2c0,-0.553 -0.448,-1 -1,-1c-0.552,0 -1,0.447 -1,1v2c0,0.553 0.448,1 1,1zM54,16c0.552,0 1,-0.447 1,-1v-2c0,-0.553 -0.448,-1 -1,-1c-0.552,0 -1,0.447 -1,1v2c0,0.553 0.448,1 1,1z" fill="#8d6c9f"></path></g></g></svg>