<svg version="1.1" xmlns="http://www.w3.org/2000/svg" xmlns:xlink="http://www.w3.org/1999/xlink" viewBox="0,0,256,256"><g fill="none" fill-rule="nonzero" stroke="none" stroke-width="1" stroke-linecap="butt" stroke-linejoin="miter" stroke-miterlimit="10" stroke-dasharray="" stroke-dashoffset="0" font-family="none" font-weight="none" font-size="none" text-anchor="none" style="mix-blend-mode: normal"><g transform="scale(4,4)"><path d="M53,9h-37c-1.10457,0 -2,0.89543 -2,2v42h-3c-1.10457,0 -2,0.89543 -2,2v2c0,1.10457 0.89543,2 2,2h42c1.10457,0 2,-0.89543 2,-2v-46c0,-1.10457 -0.89543,-2 -2,-2z" fill="#d6beef"></path><rect x="10" y="5" width="41" height="48" rx="2" ry="2" fill="#cda1c4"></rect><path d="M12,5h3v48h-6v-45c0,-1.65685 1.34315,-3 3,-3z" fill="#be94bf"></path><path d="M27.42,42.87l-4.84,-3.46c-0.34716,-0.24718 -0.81284,-0.24718 -1.16,0l-4.84,3.46c-0.30425,0.21663 -0.70386,0.24565 -1.03621,0.07527c-0.33236,-0.17039 -0.54207,-0.51178 -0.54379,-0.88527v-38.06c0,-0.55228 0.44772,-1 1,-1h12c0.55228,0 1,0.44772 1,1v38.06c-0.00172,0.37348 -0.21143,0.71488 -0.54379,0.88527c-0.33236,0.17039 -0.73197,0.14136 -1.03621,-0.07527z" fill="#ed78d1"></path><path d="M15,3h14v5h-14z" fill="#f283b7"></path><path d="M33,26h4c0.55228,0 1,-0.44772 1,-1c0,-0.55228 -0.44772,-1 -1,-1h-4c-0.55228,0 -1,0.44772 -1,1c0,0.55228 0.44772,1 1,1zM33,22h10c0.55228,0 1,-0.44772 1,-1c0,-0.55228 -0.44772,-1 -1,-1h-10c-0.55228,0 -1,0.44772 -1,1c0,0.55228 0.44772,1 1,1z" fill="#9f6c8d"></path><path d="M53,8h-1v-1c0,-1.65685 -1.34315,-3 -3,-3h-19.18c-0.42275,-1.19573 -1.55175,-1.99644 -2.82,-2h-10c-1.26825,0.00356 -2.39725,0.80427 -2.82,2h-2.18c-2.20914,0 -4,1.79086 -4,4v48c0,2.20914 1.79086,4 4,4h41c1.65685,0 3,-1.34315 3,-3v-46c0,-1.65685 -1.34315,-3 -3,-3zM16,5c0,-0.55228 0.44772,-1 1,-1h10c0.55228,0 1,0.44772 1,1v37.36l-4.82,-3.53c-0.70284,-0.51359 -1.65716,-0.51359 -2.36,0l-4.82,3.53zM10,8c0,-1.10457 0.89543,-2 2,-2h2v36.36c-0.00959,0.7576 0.40974,1.45557 1.08312,1.80285c0.67338,0.34728 1.48519,0.28423 2.09688,-0.16285l4.82,-3.56l4.82,3.56c0.61169,0.44708 1.4235,0.51012 2.09688,0.16285c0.67338,-0.34728 1.09271,-1.04525 1.08312,-1.80285v-36.36h19c0.55228,0 1,0.44772 1,1v39c-0.55228,0 -1,0.44772 -1,1v2c0,0.55228 0.44772,1 1,1v1c0,0.55228 -0.44772,1 -1,1h-37c-0.71133,0.02549 -1.40248,0.2432 -2,0.63v-2.63c0.55228,0 1,-0.44772 1,-1v-2c0,-0.55228 -0.44772,-1 -1,-1zM54,57c0,0.55228 -0.44772,1 -1,1h-41c-1.10457,0 -2,-0.89543 -2,-2c0.11555,-1.05301 0.94699,-1.88445 2,-2h37c1.65685,0 3,-1.34315 3,-3v-41h1c0.55228,0 1,0.44772 1,1z" fill="#9f6c8d"></path><path d="M33,30h7c0.55228,0 1,-0.44772 1,-1c0,-0.55228 -0.44772,-1 -1,-1h-7c-0.55228,0 -1,0.44772 -1,1c0,0.55228 0.44772,1 1,1zM44,49c0,0.55228 0.44772,1 1,1c0.55228,0 1,-0.44772 1,-1v-2c0,-0.55228 -0.44772,-1 -1,-1c-0.55228,0 -1,0.44772 -1,1zM40,46c-0.55228,0 -1,0.44772 -1,1v2c0,0.55228 0.44772,1 1,1c0.55228,0 1,-0.44772 1,-1v-2c0,-0.55228 -0.44772,-1 -1,-1zM35,46c-0.55228,0 -1,0.44772 -1,1v2c0,0.55228 0.44772,1 1,1c0.55228,0 1,-0.44772 1,-1v-2c0,-0.55228 -0.44772,-1 -1,-1zM30,50c0.55228,0 1,-0.44772 1,-1v-2c0,-0.55228 -0.44772,-1 -1,-1c-0.55228,0 -1,0.44772 -1,1v2c0,0.55228 0.44772,1 1,1zM25,50c0.55228,0 1,-0.44772 1,-1v-2c0,-0.55228 -0.44772,-1 -1,-1c-0.55228,0 -1,0.44772 -1,1v2c0,0.55228 0.44772,1 1,1zM20,50c0.55228,0 1,-0.44772 1,-1v-2c0,-0.55228 -0.44772,-1 -1,-1c-0.55228,0 -1,0.44772 -1,1v2c0,0.55228 0.44772,1 1,1zM15,50c0.55228,0 1,-0.44772 1,-1v-2c0,-0.55228 -0.44772,-1 -1,-1c-0.55228,0 -1,0.44772 -1,1v2c0,0.55228 0.44772,1 1,1z" fill="#9f6c8d"></path></g></g></svg>