<svg version="1.1" xmlns="http://www.w3.org/2000/svg" xmlns:xlink="http://www.w3.org/1999/xlink" viewBox="0,0,256,256"><g fill="none" fill-rule="nonzero" stroke="none" stroke-width="1" stroke-linecap="butt" stroke-linejoin="miter" stroke-miterlimit="10" stroke-dasharray="" stroke-dashoffset="0" font-family="none" font-weight="none" font-size="none" text-anchor="none" style="mix-blend-mode: normal"><g transform="scale(2.56,2.56)"><path d="M69.575,82h-39c-6.6,0 -12,-5.4 -12,-12v-39c0,-6.6 5.4,-12 12,-12h39c6.6,0 12,5.4 12,12v39c0,6.6 -5.4,12 -12,12z" fill="#f78bb6"></path><path d="M69.575,83h-39c-7.168,0 -13,-5.832 -13,-13v-39c0,-7.168 5.832,-13 13,-13h39c7.168,0 13,5.832 13,13v39c0,7.168 -5.832,13 -13,13zM30.575,20c-6.065,0 -11,4.935 -11,11v39c0,6.065 4.935,11 11,11h39c6.065,0 11,-4.935 11,-11v-39c0,-6.065 -4.935,-11 -11,-11z" fill="#1f212b"></path><path d="M77.075,48.5v18.663c0,5.685 -4.652,10.337 -10.337,10.337h-33.326c-5.685,0 -10.337,-4.652 -10.337,-10.337v-33.326c0,-5.685 4.652,-10.337 10.337,-10.337h33.663" fill="#f78bb6"></path><path d="M66.738,78h-33.326c-5.976,0 -10.837,-4.861 -10.837,-10.837v-33.326c0,-5.976 4.861,-10.837 10.837,-10.837h33.663c0.276,0 0.5,0.224 0.5,0.5c0,0.276 -0.224,0.5 -0.5,0.5h-33.663c-5.424,0 -9.837,4.413 -9.837,9.837v33.326c0,5.424 4.413,9.837 9.837,9.837h33.326c5.424,0 9.837,-4.413 9.837,-9.837v-18.663c0,-0.276 0.224,-0.5 0.5,-0.5c0.276,0 0.5,0.224 0.5,0.5v18.663c0,5.976 -4.862,10.837 -10.837,10.837zM77.075,46c-0.276,0 -0.5,-0.224 -0.5,-0.5v-4c0,-0.276 0.224,-0.5 0.5,-0.5c0.276,0 0.5,0.224 0.5,0.5v4c0,0.276 -0.224,0.5 -0.5,0.5zM77.075,40c-0.276,0 -0.5,-0.224 -0.5,-0.5v-2c0,-0.276 0.224,-0.5 0.5,-0.5c0.276,0 0.5,0.224 0.5,0.5v2c0,0.276 -0.224,0.5 -0.5,0.5z" fill="#1f212b"></path><path d="M62.786,60.19l-10.607,-10.607l10.607,-10.607c0.389,-0.389 0.389,-1.025 0,-1.414c-0.389,-0.389 -1.025,-0.389 -1.414,0l-10.607,10.607l-11.314,-11.314c-0.389,-0.389 -1.025,-0.389 -1.414,0c-0.389,0.389 -0.389,1.025 0,1.414l11.314,11.314l-11.314,11.314c-0.389,0.389 -0.389,1.025 0,1.414c0.389,0.389 1.025,0.389 1.414,0l11.314,-11.314l10.607,10.607c0.389,0.389 1.025,0.389 1.414,0c0.389,-0.389 0.389,-1.025 0,-1.414z" fill="#fefdef"></path><path d="M38.744,36.564c0.256,0 0.513,0.097 0.707,0.292l11.314,11.314l10.607,-10.607c0.194,-0.194 0.451,-0.292 0.707,-0.292c0.256,0 0.513,0.097 0.707,0.292c0.389,0.389 0.389,1.025 0,1.414l-10.607,10.606l10.607,10.607c0.389,0.389 0.389,1.025 0,1.414c-0.194,0.194 -0.451,0.292 -0.707,0.292c-0.256,0 -0.513,-0.097 -0.707,-0.292l-10.607,-10.606l-11.314,11.313c-0.194,0.194 -0.451,0.292 -0.707,0.292c-0.256,0 -0.513,-0.097 -0.707,-0.292c-0.389,-0.389 -0.389,-1.025 0,-1.414l11.314,-11.314l-11.314,-11.313c-0.389,-0.389 -0.389,-1.025 0,-1.414c0.195,-0.195 0.451,-0.292 0.707,-0.292M38.744,35.564c-0.535,0 -1.037,0.208 -1.414,0.585c-0.377,0.377 -0.585,0.879 -0.585,1.414c0,0.535 0.208,1.037 0.585,1.414l10.607,10.607l-10.607,10.606c-0.377,0.377 -0.585,0.879 -0.585,1.414c0,0.535 0.208,1.037 0.585,1.414c0.377,0.377 0.879,0.585 1.414,0.585c0.535,0 1.037,-0.208 1.414,-0.585l10.607,-10.607l9.9,9.899c0.377,0.377 0.879,0.585 1.414,0.585c0.535,0 1.037,-0.208 1.414,-0.585c0.377,-0.377 0.585,-0.879 0.585,-1.414c0,-0.535 -0.208,-1.037 -0.585,-1.414l-9.9,-9.899l9.9,-9.899c0.377,-0.377 0.585,-0.879 0.585,-1.414c0,-0.535 -0.208,-1.037 -0.585,-1.414c-0.377,-0.377 -0.879,-0.585 -1.414,-0.585c-0.535,0 -1.037,0.208 -1.414,0.585l-9.9,9.899l-10.606,-10.607c-0.378,-0.377 -0.88,-0.584 -1.415,-0.584z" fill="#1f212b"></path></g></g></svg>