<svg version="1.1" xmlns="http://www.w3.org/2000/svg" xmlns:xlink="http://www.w3.org/1999/xlink" viewBox="0,0,256,256"><g fill="#f78bb6" fill-rule="nonzero" stroke="none" stroke-width="1" stroke-linecap="butt" stroke-linejoin="miter" stroke-miterlimit="10" stroke-dasharray="" stroke-dashoffset="0" font-family="none" font-weight="none" font-size="none" text-anchor="none" style="mix-blend-mode: normal"><g transform="scale(5.12,5.12)"><path d="M22,3c-0.36064,-0.0051 -0.69608,0.18438 -0.87789,0.49587c-0.18181,0.3115 -0.18181,0.69676 0,1.00825c0.18181,0.3115 0.51725,0.50097 0.87789,0.49587h23v40h-13c-0.36064,-0.0051 -0.69608,0.18438 -0.87789,0.49587c-0.18181,0.3115 -0.18181,0.69676 0,1.00825c0.18181,0.3115 0.51725,0.50097 0.87789,0.49587h14c0.55226,-0.00006 0.99994,-0.44774 1,-1v-42c-0.00006,-0.55226 -0.44774,-0.99994 -1,-1zM25.5,7c-2.481,0 -4.5,2.019 -4.5,4.5c0,2.481 2.019,4.5 4.5,4.5c2.481,0 4.5,-2.019 4.5,-4.5c0,-2.481 -2.019,-4.5 -4.5,-4.5zM37.99023,10.99023c-0.40692,0.00011 -0.77321,0.24676 -0.92633,0.62377c-0.15312,0.37701 -0.06255,0.80921 0.22907,1.09303l2.29297,2.29297h-6.58594c-0.36064,-0.0051 -0.69608,0.18438 -0.87789,0.49587c-0.18181,0.3115 -0.18181,0.69676 0,1.00825c0.18181,0.3115 0.51725,0.50097 0.87789,0.49587h6.58594l-2.29297,2.29297c-0.26124,0.25082 -0.36648,0.62327 -0.27512,0.97371c0.09136,0.35044 0.36503,0.62411 0.71547,0.71547c0.35044,0.09136 0.72289,-0.01388 0.97371,-0.27512l3.91211,-3.91211c0.24753,-0.18864 0.39314,-0.48176 0.3939,-0.79298c0.00077,-0.31122 -0.1434,-0.60505 -0.39,-0.79491c-0.00195,-0.00131 -0.0039,-0.00261 -0.00586,-0.00391l-3.91016,-3.91016c-0.18827,-0.19353 -0.4468,-0.30272 -0.7168,-0.30274zM12.55859,16c-0.894,0 -1.72702,0.482 -2.16602,1.25l-2.95703,4.92773c-0.593,1.038 -0.42552,2.35586 0.39648,3.13086c0.474,0.446 1.08756,0.69141 1.72656,0.69141c0.895,0 1.72802,-0.48205 2.16602,-1.24805l2.27539,-3.75195h2.58008l-2.67969,7.15625c-0.679,1.36 -0.48934,2.99544 0.47266,4.14844l10.62695,13.82617c0.406,0.545 1.05438,0.86914 1.73438,0.86914c0.79,0 1.49481,-0.41066 1.88281,-1.09766c0.39,-0.688 0.37975,-1.5025 -0.03125,-2.1875l-7.72266,-12.25195l3.14258,-7.42187l3.22656,3.22656c0.473,0.472 1.10153,0.73242 1.76953,0.73242h4.5c0.734,0 1.42634,-0.32181 1.90234,-0.88281c0.476,-0.559 0.6825,-1.30116 0.5625,-2.03516c-0.193,-1.187 -1.30122,-2.08203 -2.57422,-2.08203h-3.35742l-4.2168,-4.2168c-1.794,-1.795 -4.1798,-2.7832 -6.7168,-2.7832zM11.98633,32.20117l-1.39844,2.79883h-5.08789c-1.379,0 -2.5,1.12005 -2.5,2.49805c0,1.378 1.121,2.5 2.5,2.5h6.78906c0.908,0 1.7465,-0.49402 2.1875,-1.29102l0.96094,-1.73633l-2.62695,-3.41992c-0.341,-0.416 -0.61522,-0.87161 -0.82422,-1.34961z"></path></g></g></svg>