<svg version="1.1" xmlns="http://www.w3.org/2000/svg" xmlns:xlink="http://www.w3.org/1999/xlink" width="40px" height="40px" viewBox="0,0,256,256"><g fill="none" fill-rule="nonzero" stroke="none" stroke-width="1" stroke-linecap="butt" stroke-linejoin="miter" stroke-miterlimit="10" stroke-dasharray="" stroke-dashoffset="0" font-family="none" font-weight="none" font-size="none" text-anchor="none" style="mix-blend-mode: normal"><g transform="scale(2,2)"><path d="M122.221,108.312l-30.031,-30.031c-2.283,-2.282 -5.627,-2.865 -8.456,-1.756l-6.026,-6.025c11.77,-15.315 10.657,-37.412 -3.36,-51.428c-15.24,-15.24 -40.035,-15.24 -55.275,0c-15.24,15.239 -15.239,40.035 0.001,55.274c7.619,7.619 17.628,11.429 27.636,11.429c8.404,0 16.801,-2.697 23.791,-8.068l6.026,6.026c-1.109,2.828 -0.526,6.172 1.756,8.454l30.032,30.032c1.536,1.535 3.553,2.303 5.57,2.303c2.018,0 4.035,-0.768 5.571,-2.303l2.766,-2.767c1.483,-1.483 2.299,-3.461 2.299,-5.57c-0.001,-2.109 -0.817,-4.088 -2.3,-5.57z" fill="#e6e7e8"></path><path d="M74.855,77.62l2.767,-2.767c0.517,-0.517 1.1,-0.931 1.72,-1.247l-7.189,-7.189c-0.83,1.05 -1.739,2.053 -2.711,3.024c-0.972,0.972 -1.974,1.881 -3.024,2.711l7.19,7.19c0.316,-0.621 0.73,-1.204 1.247,-1.722z" fill="#ffd7e5"></path><path d="M69.447,69.446c-14.834,14.834 -38.967,14.834 -53.801,0c-14.834,-14.834 -14.835,-38.968 -0.001,-53.802c14.834,-14.834 38.97,-14.834 53.804,0c14.834,14.834 14.832,38.969 -0.002,53.802z" fill="#fa759e"></path><path d="M15.645,18.767c14.834,-14.834 38.97,-14.834 53.804,0c7.02,7.02 10.712,16.123 11.087,25.337c0.417,-10.255 -3.275,-20.648 -11.087,-28.46c-14.834,-14.834 -38.97,-14.834 -53.804,0c-7.813,7.812 -11.505,18.204 -11.088,28.459c0.376,-9.214 4.068,-18.317 11.088,-25.336z" fill="#ffffff"></path><circle cx="42.547" cy="42.545" r="29.18" fill="#ffd4e7"></circle><path d="M61.326,41.823c-3.492,-2.647 -10.698,-7.192 -19.021,-7.192c-8.323,0 -15.529,4.544 -19.021,7.192c-1.234,0.936 -1.234,2.776 0,3.712c3.492,2.647 10.698,7.192 19.021,7.192c8.323,0 15.529,-4.544 19.021,-7.192c1.234,-0.936 1.234,-2.776 0,-3.712z" fill="#ffffff"></path><circle cx="42.305" cy="43.679" r="7.789" fill="#ef0092"></circle><g><path d="M117.321,104.885l-30.031,-30.032c-2.659,-2.659 -7.009,-2.659 -9.668,0l-2.767,2.767c-2.659,2.659 -2.659,7.009 0,9.668l30.031,30.031c2.659,2.659 7.009,2.659 9.668,0l2.767,-2.767c2.659,-2.658 2.659,-7.009 0,-9.667z" fill="#f76db9"></path><path d="M42.305,33.631c-8.59,0 -15.982,4.633 -19.625,7.395c-0.84,0.636 -1.321,1.603 -1.321,2.652c0,1.049 0.481,2.016 1.321,2.653c3.642,2.762 11.034,7.395 19.625,7.395c8.589,0 15.981,-4.633 19.625,-7.395c0.84,-0.637 1.321,-1.604 1.321,-2.653c0,-1.049 -0.481,-2.016 -1.321,-2.652c-3.643,-2.761 -11.037,-7.395 -19.625,-7.395zM60.721,44.738c-3.442,2.61 -10.413,6.988 -18.416,6.988c-8.006,0 -14.975,-4.378 -18.416,-6.988c-0.337,-0.255 -0.53,-0.642 -0.53,-1.06c0,-0.417 0.193,-0.803 0.53,-1.059c3.441,-2.61 10.411,-6.989 18.416,-6.989c8.003,0 14.974,4.379 18.416,6.989c0.337,0.255 0.53,0.641 0.53,1.059c0.001,0.419 -0.193,0.805 -0.53,1.06z" fill="#3a2c60"></path><path d="M42.305,40.336c-1.846,0 -3.343,1.497 -3.343,3.343c0,1.846 1.497,3.343 3.343,3.343c1.846,0 3.343,-1.497 3.343,-3.343c0,-1.846 -1.496,-3.343 -3.343,-3.343z" fill="#3a2c60"></path><path d="M69.612,53.52c-0.524,-0.235 -1.142,0.001 -1.375,0.525c-1.399,3.127 -3.349,5.953 -5.793,8.397c-5.314,5.314 -12.381,8.242 -19.896,8.242c-7.517,0 -14.583,-2.927 -19.897,-8.242c-5.315,-5.315 -8.242,-12.381 -8.242,-19.897c0,-7.516 2.927,-14.583 8.242,-19.897c10.97,-10.97 28.822,-10.972 39.794,0c4.759,4.759 7.657,11.071 8.161,17.772c0.043,0.573 0.549,1 1.116,0.96c0.573,-0.043 1.003,-0.543 0.96,-1.116c-0.541,-7.198 -3.654,-13.977 -8.765,-19.088c-11.784,-11.784 -30.957,-11.782 -42.739,0c-5.708,5.708 -8.852,13.297 -8.852,21.369c0,8.072 3.144,15.661 8.852,21.369c5.892,5.892 13.631,8.837 21.37,8.837c7.738,0 15.478,-2.946 21.369,-8.837c2.624,-2.624 4.717,-5.658 6.221,-9.018c0.234,-0.525 -0.001,-1.141 -0.526,-1.376z" fill="#3a2c60"></path><path d="M71.741,43.062c-0.604,-0.021 -1.064,0.411 -1.095,0.984c-0.121,2.257 -0.511,4.494 -1.161,6.647c-0.166,0.551 0.146,1.131 0.696,1.297c0.101,0.03 0.201,0.044 0.301,0.044c0.447,0 0.86,-0.29 0.997,-0.74c0.697,-2.313 1.116,-4.714 1.245,-7.139c0.032,-0.572 -0.409,-1.062 -0.983,-1.093z" fill="#3a2c60"></path><path d="M120.356,109.718c0,-2.109 -0.816,-4.087 -2.299,-5.569l-30.031,-30.031c-1.482,-1.482 -3.461,-2.299 -5.57,-2.299c-1.005,0 -1.978,0.191 -2.884,0.545l-6.025,-6.025c5.227,-6.787 8.067,-15.066 8.067,-23.793c0,-10.452 -4.059,-20.267 -11.43,-27.637c-7.371,-7.371 -17.186,-11.43 -27.638,-11.43c-10.452,0 -20.268,4.059 -27.639,11.43c-15.237,15.238 -15.236,40.034 0.003,55.273c7.62,7.619 17.628,11.429 27.637,11.429c8.403,0 16.8,-2.697 23.79,-8.068l6.027,6.027c-1.109,2.828 -0.526,6.172 1.755,8.454l30.031,30.032c1.483,1.482 3.461,2.299 5.57,2.299c2.109,0 4.088,-0.817 5.57,-2.299l2.767,-2.767v0c1.483,-1.483 2.299,-3.461 2.299,-5.571zM16.383,68.71c-14.429,-14.427 -14.429,-37.902 -0.002,-52.33c6.977,-6.978 16.27,-10.82 26.166,-10.82c9.896,0 19.188,3.842 26.165,10.82c6.978,6.978 10.82,16.27 10.82,26.165c0,9.896 -3.843,19.188 -10.821,26.166c-14.426,14.425 -37.903,14.425 -52.328,-0.001zM67.961,72.223c0.758,-0.65 1.504,-1.323 2.222,-2.041c0.715,-0.715 1.39,-1.461 2.042,-2.22l5.464,5.464c-0.28,0.213 -0.552,0.439 -0.804,0.692l-2.767,2.767c-0.254,0.254 -0.48,0.526 -0.692,0.805zM116.585,113.816v0l-2.767,2.768c-1.089,1.089 -2.544,1.689 -4.098,1.689c-1.553,0 -3.009,-0.6 -4.098,-1.689l-30.031,-30.032c-2.26,-2.259 -2.26,-5.936 0,-8.196l2.767,-2.766c1.089,-1.089 2.545,-1.689 4.098,-1.689c1.554,0 3.009,0.6 4.098,1.689l30.031,30.032c1.09,1.089 1.689,2.544 1.689,4.097c0,1.552 -0.6,3.008 -1.689,4.097z" fill="#3a2c60"></path></g></g></g></svg>