<svg version="1.1" xmlns="http://www.w3.org/2000/svg" xmlns:xlink="http://www.w3.org/1999/xlink"  viewBox="0,0,256,256"><g fill="none" fill-rule="nonzero" stroke="none" stroke-width="1" stroke-linecap="butt" stroke-linejoin="miter" stroke-miterlimit="10" stroke-dasharray="" stroke-dashoffset="0" font-family="none" font-weight="none" font-size="none" text-anchor="none" style="mix-blend-mode: normal"><g transform="scale(3.2,3.2)"><path d="M60.5,75.5h-42c-2.761,0 -5,-2.239 -5,-5v-59c0,-2.761 2.239,-5 5,-5h42c2.761,0 5,2.239 5,5v59c0,2.761 -2.239,5 -5,5z" fill="#fff2fe"></path><path d="M60.5,76h-42c-3.032,0 -5.5,-2.467 -5.5,-5.5v-59c0,-3.033 2.468,-5.5 5.5,-5.5h42c3.032,0 5.5,2.467 5.5,5.5v59c0,3.033 -2.468,5.5 -5.5,5.5zM18.5,7c-2.481,0 -4.5,2.019 -4.5,4.5v59c0,2.481 2.019,4.5 4.5,4.5h42c2.481,0 4.5,-2.019 4.5,-4.5v-59c0,-2.481 -2.019,-4.5 -4.5,-4.5z" fill="#cca3c6"></path><path d="M21.5,6.5v4.5h-0.5c-0.6,0 -1,-0.4 -1,-1v-3.5zM33.5,6.5v4.5h-0.5c-0.6,0 -1,-0.4 -1,-1v-3.5zM45.5,6.5v4.5h-0.5c-0.6,0 -1,-0.4 -1,-1v-3.5zM57.5,6.5v4.5h-0.5c-0.6,0 -1,-0.4 -1,-1v-3.5z" fill="#cca3c6"></path><path d="M57,10.5v-8c0,-0.3 0.2,-0.5 0.5,-0.5c0.3,0 0.5,0.2 0.5,0.5v8c0,0.3 -0.2,0.5 -0.5,0.5c-0.3,0 -0.5,-0.2 -0.5,-0.5zM45,10.5v-8c0,-0.3 0.2,-0.5 0.5,-0.5c0.3,0 0.5,0.2 0.5,0.5v8c0,0.3 -0.2,0.5 -0.5,0.5c-0.3,0 -0.5,-0.2 -0.5,-0.5zM33,10.5v-8c0,-0.3 0.2,-0.5 0.5,-0.5c0.3,0 0.5,0.2 0.5,0.5v8c0,0.3 -0.2,0.5 -0.5,0.5c-0.3,0 -0.5,-0.2 -0.5,-0.5zM21,10.5v-8c0,-0.3 0.2,-0.5 0.5,-0.5c0.3,0 0.5,0.2 0.5,0.5v8c0,0.3 -0.2,0.5 -0.5,0.5c-0.3,0 -0.5,-0.2 -0.5,-0.5z" fill="#9c7894"></path><path d="M66,31.111v-19.611c0,-0.776 -0.164,-1.514 -0.455,-2.185l-0.789,0.789c0.146,0.443 0.244,0.906 0.244,1.396v20.612z" fill="#edd6ed"></path><g><path d="M38.548,39.868l4.166,-4.166l8.11,7.063l-4.673,4.673l-13.205,5.617z" fill="#f585e2"></path><path d="M42.738,36.385l7.354,6.405l-4.225,4.225l-11.976,5.095l5.079,-11.957l3.768,-3.768M42.69,35.018l-4.565,4.565l-6.124,14.417l14.435,-6.14l5.12,-5.12l-8.866,-7.722z" fill="#964488"></path><path d="M35.457,45.867l-3.456,8.133l8.141,-3.464z" fill="#4d364b"></path><path d="M65.981,12.414l2.362,-2.361c1.013,-1.013 2.361,-1.571 3.793,-1.571c1.433,0 2.78,0.558 3.793,1.571c1.013,1.013 1.571,2.36 1.571,3.793c0,1.433 -0.558,2.78 -1.571,3.793l-2.361,2.361z" fill="#f78fe2"></path><path d="M72.136,8.981c1.299,0 2.521,0.506 3.44,1.425c0.919,0.919 1.425,2.14 1.425,3.44c0,1.3 -0.506,2.521 -1.425,3.44l-2.008,2.008l-6.88,-6.88l2.008,-2.008c0.919,-0.919 2.141,-1.425 3.44,-1.425M72.136,7.981c-1.501,0 -3.002,0.573 -4.147,1.718l-2.715,2.715l8.294,8.294l2.715,-2.715c2.29,-2.29 2.29,-6.004 0,-8.294v0c-1.145,-1.146 -2.646,-1.718 -4.147,-1.718z" fill="#c743bd"></path><path d="M46.851,46.738c-0.088,-0.332 -0.245,-0.688 -0.518,-1.008c-0.465,-0.545 -1.148,-0.861 -2.036,-0.941c-0.223,-2.042 -1.869,-2.829 -3.043,-3.016c-0.162,-1.522 -1.139,-2.248 -2.077,-2.534l24.108,-24.129l7.587,7.587z" fill="#fea3ff"></path><path d="M63.285,15.818l6.88,6.88l-23.137,23.155c-0.087,-0.152 -0.191,-0.302 -0.314,-0.447c-0.48,-0.563 -1.143,-0.919 -1.977,-1.064c-0.367,-1.858 -1.828,-2.699 -3.037,-2.99c-0.222,-1.166 -0.887,-1.88 -1.64,-2.29l23.225,-23.244M63.285,14.403l-25.159,25.18c0,0 0.011,0 0.032,0c0.301,0 2.62,0.083 2.62,2.644c0,0 3.045,0.095 3.045,3.04c3.029,0 2.613,2.593 2.613,2.593l25.142,-25.163l-8.293,-8.294z" fill="#ba48ae"></path><g><path d="M61.424,16.97l5.393,-5.393l7.587,7.587l-5.393,5.393z" fill="#f5d9f3"></path><path d="M66.819,12.283l6.88,6.88l-4.686,4.686l-6.88,-6.88l4.686,-4.686M66.819,10.869l-6.1,6.1l8.294,8.294l6.1,-6.1l-8.294,-8.294z" fill="#9c7894"></path></g></g></g></g></svg>