<svg version="1.1" xmlns="http://www.w3.org/2000/svg" xmlns:xlink="http://www.w3.org/1999/xlink" viewBox="0,0,256,256"><g fill="none" fill-rule="nonzero" stroke="none" stroke-width="1" stroke-linecap="butt" stroke-linejoin="miter" stroke-miterlimit="10" stroke-dasharray="" stroke-dashoffset="0" font-family="none" font-weight="none" font-size="none" text-anchor="none" style="mix-blend-mode: normal"><g transform="scale(4,4)"><path d="M61,29.56v4.88c0,0.91 -0.63,1.71 -1.51,1.93l-5.19,1.29c-0.55,2.17 -1.41,4.21 -2.52,6.08l2.75,4.6c0.48,0.79 0.36,1.79 -0.3,2.44l-3.45,3.45c-0.37,0.38 -0.88,0.59 -1.41,0.59c-0.36,0 -0.72,-0.1 -1.03,-0.29l-4.6,-2.75c-1.86,1.11 -3.9,1.96 -6.06,2.51l-1.3,5.2c-0.22,0.89 -1.02,1.51 -1.94,1.51h-4.89c-0.92,0 -1.72,-0.62 -1.94,-1.51l-1.21,-4.86l-0.09,-0.34c-2.15,-0.55 -4.19,-1.4 -6.05,-2.51l-4.6,2.75c-0.31,0.19 -0.67,0.29 -1.03,0.29c-0.53,0 -1.04,-0.21 -1.41,-0.59l-2.72,-2.72l-0.73,-0.73c-0.66,-0.65 -0.78,-1.65 -0.3,-2.45l2.69,-4.49l0.06,-0.1c-0.5,-0.83 -0.94,-1.7 -1.32,-2.6c-0.49,-1.11 -0.89,-2.27 -1.19,-3.46l-0.32,-0.08l-4.88,-1.22c-0.89,-0.22 -1.51,-1.02 -1.51,-1.94v-4.88c0,-0.91 0.63,-1.71 1.51,-1.93l5.19,-1.29c0.55,-2.17 1.41,-4.21 2.52,-6.08l-2.75,-4.6c-0.48,-0.79 -0.36,-1.79 0.3,-2.44l3.46,-3.45c0.37,-0.38 0.88,-0.59 1.41,-0.59c0.36,0 0.72,0.1 1.03,0.29l4.59,2.75c1.86,-1.11 3.9,-1.96 6.06,-2.51l1.3,-5.2c0.22,-0.89 1.02,-1.51 1.94,-1.51h4.89c0.92,0 1.72,0.62 1.94,1.51l1.21,4.85l0.09,0.35c1.18,0.3 2.33,0.69 3.43,1.18c0.91,0.38 1.78,0.83 2.62,1.33l0.1,-0.06l4.5,-2.69c0.31,-0.19 0.67,-0.29 1.03,-0.29c0.53,0 1.04,0.21 1.41,0.59l0.73,0.72l2.72,2.72c0.66,0.65 0.78,1.65 0.3,2.45l-2.75,4.6c1.11,1.86 1.96,3.9 2.51,6.06l0.31,0.08l4.89,1.22c0.89,0.22 1.51,1.02 1.51,1.94z" fill="#e7c2e2"></path><path d="M54.29,26.32l0.31,0.08l-28.2,28.23l-0.09,-0.34c-2.15,-0.55 -4.19,-1.4 -6.05,-2.51l-4.6,2.75c-0.31,0.19 -0.67,0.29 -1.03,0.29c-0.53,0 -1.04,-0.21 -1.41,-0.59l-0.72,-0.72l41.01,-41.02l0.72,0.72c0.66,0.65 0.78,1.65 0.3,2.45l-2.75,4.6c1.11,1.86 1.96,3.9 2.51,6.06zM51.51,10.49l-41.01,41.02l-0.73,-0.73c-0.66,-0.65 -0.78,-1.65 -0.3,-2.45l2.69,-4.49l31.68,-31.68l4.5,-2.69c0.31,-0.19 0.67,-0.29 1.03,-0.29c0.53,0 1.04,0.21 1.41,0.59zM41.12,10.89l-30.22,30.25c-0.49,-1.11 -0.89,-2.27 -1.19,-3.46l-0.32,-0.08l28.21,-28.24l0.09,0.35c1.18,0.3 2.33,0.69 3.43,1.18z" fill="#edd3e4"></path><path d="M32,15c-9.38884,0 -17,7.61116 -17,17c0,9.38884 7.61116,17 17,17c9.38884,0 17,-7.61116 17,-17c0,-9.38884 -7.61116,-17 -17,-17z" fill="#d0acc4"></path><path d="M35,28.023c1.052,0.795 1.768,1.99 1.938,3.364l6.615,3.819v0c0.284,-1.022 0.447,-2.094 0.447,-3.206c0,-5.59 -3.827,-10.273 -9,-11.607zM40.549,40.4l-6.585,-3.802c-0.604,0.258 -1.267,0.402 -1.964,0.402c-0.697,0 -1.36,-0.144 -1.963,-0.402l-6.586,3.802c-0.009,-0.01 -0.026,-0.015 -0.036,-0.024c2.179,2.233 5.218,3.624 8.585,3.624c3.365,0 6.402,-1.389 8.581,-3.62c-0.009,0.007 -0.025,0.012 -0.032,0.02zM20.446,35.206l6.615,-3.819c0.17,-1.375 0.886,-2.569 1.938,-3.364v-7.629c-5.172,1.333 -8.999,6.016 -8.999,11.606c0,1.112 0.163,2.184 0.446,3.206z" fill="#f98fdf"></path><path d="M34.44,62h-4.89c-1.378,0 -2.574,-0.933 -2.909,-2.269l-1.154,-4.628c-1.813,-0.51 -3.565,-1.237 -5.221,-2.168l-4.096,2.455c-1.159,0.692 -2.711,0.497 -3.66,-0.449l-3.45,-3.452c-0.978,-0.977 -1.162,-2.486 -0.449,-3.671l2.452,-4.087c-0.93,-1.654 -1.657,-3.405 -2.167,-5.22l-4.626,-1.161c-1.336,-0.335 -2.27,-1.532 -2.27,-2.91v-4.877c0.004,-1.376 0.937,-2.569 2.268,-2.903l4.623,-1.152c0.511,-1.821 1.239,-3.578 2.17,-5.236l-2.452,-4.094c-0.712,-1.181 -0.527,-2.689 0.45,-3.667l3.461,-3.451c0.951,-0.949 2.507,-1.141 3.659,-0.449l4.088,2.453c1.654,-0.93 3.405,-1.657 5.221,-2.167l1.162,-4.626c0.335,-1.337 1.532,-2.271 2.91,-2.271h4.89c1.378,0 2.574,0.933 2.909,2.269l1.154,4.628c1.815,0.511 3.566,1.238 5.22,2.167l4.097,-2.454c1.157,-0.692 2.71,-0.497 3.66,0.45l3.449,3.438c0.979,0.978 1.163,2.488 0.449,3.673l-2.453,4.095c0.93,1.654 1.657,3.405 2.168,5.222l4.626,1.162c1.337,0.335 2.271,1.532 2.271,2.91v4.877c-0.004,1.376 -0.937,2.569 -2.268,2.903l-4.623,1.152c-0.512,1.821 -1.24,3.578 -2.17,5.236l2.452,4.094c0.712,1.181 0.527,2.69 -0.451,3.668l-3.449,3.449c-0.952,0.95 -2.504,1.143 -3.66,0.451l-4.097,-2.455c-1.657,0.931 -3.408,1.658 -5.223,2.168l-1.162,4.626c-0.334,1.337 -1.531,2.271 -2.909,2.271zM20.257,50.775c0.177,0 0.354,0.047 0.511,0.141c1.816,1.081 3.765,1.89 5.792,2.405c0.357,0.09 0.635,0.369 0.724,0.727l1.296,5.198c0.112,0.443 0.51,0.754 0.97,0.754h4.89c0.459,0 0.858,-0.312 0.97,-0.757l1.305,-5.196c0.089,-0.357 0.367,-0.636 0.724,-0.727c2.027,-0.515 3.977,-1.323 5.793,-2.404c0.315,-0.188 0.71,-0.187 1.025,0.002l4.601,2.757c0.385,0.23 0.903,0.165 1.22,-0.15l3.448,-3.448c0.326,-0.326 0.389,-0.83 0.151,-1.224l-2.756,-4.602c-0.189,-0.315 -0.189,-0.709 -0.001,-1.024c1.081,-1.817 1.89,-3.771 2.407,-5.809c0.09,-0.356 0.37,-0.635 0.728,-0.725l5.193,-1.294c0.441,-0.11 0.752,-0.508 0.753,-0.966v-4.873c0,-0.459 -0.311,-0.857 -0.756,-0.97v0l-5.196,-1.305c-0.356,-0.089 -0.635,-0.367 -0.726,-0.724c-0.516,-2.03 -1.325,-3.979 -2.405,-5.792c-0.188,-0.316 -0.188,-0.71 0.001,-1.025l2.756,-4.602c0.24,-0.398 0.178,-0.902 -0.148,-1.229l-3.448,-3.438c-0.317,-0.315 -0.833,-0.384 -1.222,-0.15l-4.6,2.755c-0.315,0.188 -0.708,0.19 -1.025,0.002c-1.814,-1.079 -3.764,-1.888 -5.792,-2.404c-0.356,-0.091 -0.635,-0.37 -0.724,-0.727l-1.296,-5.198c-0.112,-0.442 -0.51,-0.753 -0.97,-0.753h-4.89c-0.459,0 -0.858,0.312 -0.97,0.757l-1.305,5.196c-0.089,0.356 -0.367,0.636 -0.724,0.726c-2.029,0.516 -3.978,1.324 -5.791,2.404c-0.317,0.188 -0.71,0.187 -1.026,-0.002l-4.593,-2.756c-0.383,-0.23 -0.902,-0.165 -1.219,0.15l-3.46,3.45c-0.325,0.325 -0.387,0.828 -0.149,1.222l2.756,4.602c0.189,0.315 0.189,0.709 0.001,1.024c-1.081,1.818 -1.891,3.772 -2.407,5.809c-0.09,0.356 -0.37,0.635 -0.728,0.725l-5.193,1.294c-0.44,0.11 -0.751,0.507 -0.752,0.965v4.874c0,0.459 0.311,0.857 0.756,0.97l5.197,1.305c0.356,0.089 0.635,0.367 0.726,0.724c0.516,2.028 1.324,3.977 2.404,5.791c0.188,0.316 0.188,0.711 -0.002,1.026l-2.756,4.594c-0.239,0.396 -0.177,0.899 0.149,1.226l3.451,3.45c0.314,0.313 0.83,0.381 1.219,0.148l4.6,-2.756c0.157,-0.095 0.336,-0.143 0.513,-0.143z" fill="#9f6c99"></path><path d="M50,33h-2c-0.552,0 -1,-0.447 -1,-1c0,-0.553 0.448,-1 1,-1h2c0.552,0 1,0.447 1,1c0,0.553 -0.448,1 -1,1zM49.119,38.563c-0.102,0 -0.207,-0.016 -0.309,-0.049l-1.902,-0.618c-0.525,-0.171 -0.813,-0.735 -0.642,-1.26c0.17,-0.525 0.734,-0.813 1.26,-0.643l1.902,0.618c0.525,0.171 0.813,0.735 0.642,1.26c-0.137,0.423 -0.529,0.692 -0.951,0.692zM46.562,43.58c-0.204,0 -0.409,-0.063 -0.587,-0.191l-1.618,-1.176c-0.447,-0.324 -0.546,-0.949 -0.221,-1.396c0.325,-0.446 0.949,-0.545 1.397,-0.221l1.618,1.176c0.447,0.324 0.546,0.949 0.221,1.396c-0.196,0.27 -0.501,0.412 -0.81,0.412zM42.581,47.563c-0.31,0 -0.614,-0.143 -0.81,-0.412l-1.175,-1.618c-0.325,-0.447 -0.226,-1.072 0.221,-1.397c0.448,-0.322 1.073,-0.226 1.397,0.222l1.175,1.618c0.325,0.447 0.226,1.072 -0.221,1.397c-0.178,0.127 -0.383,0.19 -0.587,0.19zM37.563,50.119c-0.422,0 -0.814,-0.269 -0.951,-0.691l-0.618,-1.902c-0.17,-0.524 0.117,-1.089 0.642,-1.26c0.528,-0.169 1.09,0.117 1.26,0.643l0.618,1.902c0.17,0.524 -0.117,1.089 -0.642,1.26c-0.103,0.033 -0.207,0.048 -0.309,0.048zM47.217,28.056c-0.422,0 -0.814,-0.269 -0.951,-0.691c-0.17,-0.524 0.117,-1.089 0.642,-1.26l1.902,-0.618c0.526,-0.169 1.09,0.117 1.26,0.643c0.17,0.524 -0.117,1.089 -0.642,1.26l-1.902,0.618c-0.103,0.032 -0.207,0.048 -0.309,0.048zM44.945,23.596c-0.31,0 -0.614,-0.143 -0.81,-0.412c-0.325,-0.447 -0.226,-1.072 0.221,-1.396l1.618,-1.176c0.448,-0.325 1.073,-0.227 1.397,0.221c0.325,0.447 0.226,1.072 -0.221,1.396l-1.618,1.176c-0.178,0.128 -0.383,0.191 -0.587,0.191zM41.404,20.056c-0.204,0 -0.409,-0.062 -0.587,-0.19c-0.447,-0.325 -0.546,-0.95 -0.221,-1.397l1.175,-1.618c0.325,-0.446 0.95,-0.547 1.397,-0.222c0.447,0.325 0.546,0.95 0.221,1.397l-1.175,1.618c-0.196,0.269 -0.501,0.412 -0.81,0.412zM36.944,17.783c-0.102,0 -0.207,-0.016 -0.309,-0.049c-0.525,-0.171 -0.813,-0.735 -0.642,-1.26l0.618,-1.902c0.17,-0.525 0.735,-0.812 1.26,-0.643c0.525,0.171 0.813,0.735 0.642,1.26l-0.618,1.902c-0.137,0.424 -0.529,0.692 -0.951,0.692zM32,50c-9.925,0 -18,-8.075 -18,-18c0,-5.715 2.771,-11.147 7.411,-14.534c0.446,-0.326 1.072,-0.227 1.397,0.218c0.326,0.446 0.228,1.072 -0.218,1.397c-4.127,3.012 -6.59,7.841 -6.59,12.919c0,8.822 7.178,16 16,16c0.552,0 1,0.447 1,1c0,0.553 -0.448,1 -1,1zM27,16.75c-0.427,0 -0.823,-0.276 -0.955,-0.706c-0.163,-0.527 0.134,-1.087 0.662,-1.25c1.712,-0.526 3.493,-0.794 5.293,-0.794c0.552,0 1,0.447 1,1c0,0.553 -0.448,1 -1,1c-1.6,0 -3.184,0.237 -4.706,0.706c-0.098,0.03 -0.197,0.044 -0.294,0.044zM43.554,36.206c-0.173,0 -0.346,-0.045 -0.5,-0.134l-6.615,-3.819c-0.271,-0.157 -0.454,-0.432 -0.492,-0.743c-0.134,-1.081 -0.685,-2.036 -1.549,-2.689c-0.251,-0.189 -0.398,-0.485 -0.398,-0.799v-7.629c0,-0.31 0.143,-0.601 0.388,-0.79c0.244,-0.19 0.565,-0.254 0.862,-0.179c5.741,1.481 9.75,6.652 9.75,12.576c0,1.149 -0.163,2.318 -0.482,3.474c-0.083,0.298 -0.299,0.541 -0.585,0.658c-0.122,0.05 -0.251,0.074 -0.379,0.074zM37.846,30.756l5.022,2.9c0.088,-0.555 0.132,-1.109 0.132,-1.656c0,-4.569 -2.82,-8.609 -7,-10.235v5.787c0.945,0.847 1.585,1.959 1.846,3.204z" fill="#9f6c99"></path><path d="M32,45c-3.527,0 -6.831,-1.395 -9.301,-3.926c-0.371,-0.38 -0.38,-0.982 -0.021,-1.374c0.137,-0.149 0.311,-0.249 0.495,-0.295l6.364,-3.674c0.273,-0.157 0.604,-0.178 0.893,-0.054c0.999,0.428 2.142,0.428 3.141,0c0.289,-0.124 0.619,-0.104 0.893,0.054l6.379,3.684c0.181,0.049 0.35,0.149 0.484,0.299c0.351,0.392 0.337,0.988 -0.03,1.364c-2.469,2.529 -5.771,3.922 -9.297,3.922zM25.129,40.586c1.945,1.565 4.34,2.414 6.871,2.414c2.532,0 4.927,-0.849 6.871,-2.414l-4.998,-2.886c-1.207,0.398 -2.538,0.398 -3.745,0zM23.415,40.376h0.01zM20.446,36.206c-0.128,0 -0.257,-0.024 -0.379,-0.074c-0.286,-0.117 -0.502,-0.36 -0.585,-0.658c-0.319,-1.156 -0.482,-2.325 -0.482,-3.474c0,-5.924 4.009,-11.095 9.75,-12.575c0.297,-0.076 0.618,-0.012 0.862,0.179c0.245,0.189 0.388,0.48 0.388,0.79v7.629c0,0.313 -0.147,0.609 -0.397,0.798c-0.864,0.653 -1.415,1.608 -1.549,2.689c-0.039,0.312 -0.221,0.586 -0.492,0.743l-6.615,3.819c-0.155,0.089 -0.327,0.134 -0.501,0.134zM28,21.765c-4.18,1.626 -7,5.666 -7,10.235c0,0.547 0.044,1.101 0.131,1.656l5.022,-2.9c0.261,-1.245 0.901,-2.356 1.846,-3.204v-5.787zM32,30c-1.10457,0 -2,0.89543 -2,2c0,1.10457 0.89543,2 2,2c1.10457,0 2,-0.89543 2,-2c0,-1.10457 -0.89543,-2 -2,-2z" fill="#9f6c99"></path></g></g></svg>