<svg version="1.1" xmlns="http://www.w3.org/2000/svg" xmlns:xlink="http://www.w3.org/1999/xlink" viewBox="0 0 172 172"><g fill="none" fill-rule="nonzero" stroke="none" stroke-width="1" stroke-linecap="butt" stroke-linejoin="miter" stroke-miterlimit="10" stroke-dasharray="" stroke-dashoffset="0" font-family="none" font-weight="none" font-size="none" text-anchor="none" style="mix-blend-mode: normal"><path d="M0,172v-172h172v172z" fill="none"></path><g><path d="M152.57088,95.76444c0.516,-1.05952 0.97352,-2.17408 1.36912,-3.34196c4.52876,-13.3644 -2.32028,-29.37416 -16.74076,-33.239c-1.56004,-19.57876 -15.32004,-33.01196 -30.85852,-35.303c-17.78652,-2.623 -34.08008,8.67568 -39.50152,26.6342c-6.53428,-2.31512 -12.90172,-2.03304 -18.9028,1.47404c-2.72276,1.25904 -5.21332,3.11664 -7.4476,5.56076c-3.28004,3.58792 -5.41284,8.11668 -6.28144,12.8914c-1.28656,0.20296 -2.55076,0.40592 -3.74272,0.83248c-6.9488,2.49228 -11.33308,7.62132 -12.53536,15.34756c-0.7482,4.81084 0.76196,9.60964 1.60476,11.54808c3.3282,7.6626 11.04584,12.0056 18.88732,10.85664c0.39044,-0.05676 0.95804,0.11868 1.29344,0.40076c0.41452,12.2464 6.36056,23.07724 15.28048,29.26408c14.31212,9.92784 32.72644,6.86968 44.34332,-6.74412c4.97768,5.0912 10.90136,7.56456 17.86048,6.66672c6.91956,-0.89268 12.29284,-4.71108 16.21272,-10.92028c1.81116,0.48676 3.52772,1.18852 5.30276,1.38288c6.95224,0.76024 12.59728,-2.0038 16.73904,-8.256c1.58584,-2.39252 3.08396,-5.49368 3.08396,-10.92888c0.00172,-5.60032 -2.22396,-10.70356 -5.96668,-14.12636z" fill="#e0f5ff"></path><path d="M85.59408,126.076v-43.43344l-9.97084,9.97256l-4.66292,-4.66292l17.90864,-17.9138l17.43564,17.90176l-4.67496,4.67496l-9.95364,-9.95364v43.41452z" fill="#f78bb6"></path><path d="M88.94292,71.8358l15.67092,16.09404l-2.98248,2.98248l-7.04684,-7.04684l-4.1108,-4.1108v5.8136v39.30372h-3.67392v-39.32092v-5.8136l-4.1108,4.1108l-7.06404,7.06404l-2.96012,-2.96012l16.05276,-16.0562l0.08256,0.09976l0.14276,-0.15996M88.88444,68.32356l-0.00172,0.00172l-0.00172,-0.00172l-19.62348,19.62864l6.36572,6.36572l8.76684,-8.76684v41.72892h8.48992v-41.71172l8.74964,8.74964l6.36572,-6.36572l-19.11092,-19.62864zM109.22,65.36h-27.52c-0.47472,0 -0.86,-0.38528 -0.86,-0.86c0,-0.47472 0.38528,-0.86 0.86,-0.86h27.52c0.47472,0 0.86,0.38528 0.86,0.86c0,0.47472 -0.38528,0.86 -0.86,0.86zM78.26,65.36h-1.72c-0.47472,0 -0.86,-0.38528 -0.86,-0.86c0,-0.47472 0.38528,-0.86 0.86,-0.86h1.72c0.47472,0 0.86,0.38528 0.86,0.86c0,0.47472 -0.38528,0.86 -0.86,0.86zM73.1,65.36h-5.16c-0.47472,0 -0.86,-0.38528 -0.86,-0.86c0,-0.47472 0.38528,-0.86 0.86,-0.86h5.16c0.47472,0 0.86,0.38528 0.86,0.86c0,0.47472 -0.38528,0.86 -0.86,0.86z" fill="#56597a"></path><g><path d="M113.004,69.316v-8.6h-48.848v8.6h-6.192v-14.792h61.232v14.792z" fill="#f78bb6"></path><path d="M117.992,55.728v6.192v6.192h-3.784v-6.192v-2.408h-2.408h-46.44h-2.408v2.408v6.192h-3.784v-6.192v-6.192h6.192h46.44h6.192M120.4,53.32h-8.6h-46.44h-8.6v8.6v8.6h8.6v-8.6h46.44v8.6h8.6v-8.6v-8.6z" fill="#56597a"></path></g><g><path d="M131.00208,136.6196c0,0 18.25952,0 18.37132,0c4.21744,0 7.63508,-3.41764 7.63508,-7.63508c0,-3.67908 -2.60236,-6.74928 -6.06644,-7.47168c0.03956,-0.32164 0.06708,-0.64844 0.06708,-0.9804c0,-4.36708 -3.53976,-7.90856 -7.90684,-7.90856c-2.57828,0 -4.86244,1.24012 -6.30552,3.14932c-0.3698,-4.86072 -4.71108,-8.61204 -9.79196,-7.99112c-3.7152,0.45408 -6.78884,3.32648 -7.47168,7.00556c-0.21844,1.17992 -0.19608,2.32544 0.02236,3.40044c-0.99588,-1.07328 -2.41316,-1.74752 -3.99384,-1.74752c-2.8896,0 -5.24944,2.24976 -5.4352,5.09292c-1.31236,-0.29068 -2.73996,-0.27176 -4.24324,0.2924c-2.87412,1.07844 -4.92092,3.784 -5.0396,6.85076c-0.17028,4.35676 3.311,7.94124 7.6282,7.94124c0.32852,0 1.48092,0 1.7458,0h15.85496" fill="#fcfcfc"></path><path d="M149.3734,137.4796h-18.37132c-0.47472,0 -0.86,-0.38528 -0.86,-0.86c0,-0.47472 0.38528,-0.86 0.86,-0.86h18.37132c3.73584,0 6.77508,-3.03924 6.77508,-6.77508c0,-3.18888 -2.26352,-5.97872 -5.38188,-6.6306c-0.43688,-0.09116 -0.731,-0.50224 -0.67768,-0.946c0.03612,-0.28896 0.0602,-0.57964 0.0602,-0.8772c0,-3.88548 -3.16136,-7.04856 -7.04856,-7.04856c-2.22224,0 -4.27076,1.0234 -5.61924,2.80704c-0.21672,0.28552 -0.5848,0.40764 -0.9288,0.30788c-0.344,-0.10148 -0.58824,-0.4042 -0.61576,-0.76024c-0.16168,-2.12936 -1.20572,-4.12972 -2.86208,-5.4868c-1.67356,-1.37256 -3.79604,-1.97628 -5.97012,-1.71484c-3.34884,0.40936 -6.11632,3.00484 -6.73036,6.30896c-0.19264,1.03372 -0.18576,2.06572 0.01892,3.07192c0.0774,0.3784 -0.10664,0.76024 -0.44892,0.9374c-0.34228,0.17544 -0.76196,0.1032 -1.0234,-0.17888c-0.88236,-0.94944 -2.07776,-1.47232 -3.36432,-1.47232c-2.408,0 -4.41868,1.8834 -4.57692,4.28968c-0.0172,0.25112 -0.14104,0.4816 -0.34228,0.63124c-0.20124,0.14964 -0.46096,0.20296 -0.70176,0.15136c-1.2986,-0.28724 -2.52496,-0.20296 -3.75476,0.258c-2.57656,0.96664 -4.3774,3.40904 -4.48232,6.0802c-0.07224,1.86276 0.59684,3.62748 1.88512,4.96908c1.29,1.3416 3.02376,2.07948 4.8848,2.07948h17.60076c0.47472,0 0.86,0.38528 0.86,0.86c0,0.47472 -0.38528,0.86 -0.86,0.86h-17.59732c-2.33232,0 -4.50812,-0.92708 -6.12492,-2.60752c-1.61508,-1.68044 -2.45616,-3.89236 -2.365,-6.22812c0.13072,-3.35228 2.38048,-6.4156 5.59688,-7.62304c1.2384,-0.4644 2.51808,-0.62436 3.82012,-0.47988c0.62264,-2.8466 3.16824,-4.96048 6.16104,-4.96048c1.03716,0 2.05368,0.25972 2.9584,0.74132c0.00688,-0.56244 0.06192,-1.1266 0.16684,-1.69076c0.74992,-4.03512 4.12628,-7.20336 8.213,-7.70216c2.6488,-0.32852 5.22708,0.41968 7.26872,2.09152c1.54628,1.26764 2.65396,2.99624 3.17684,4.90372c1.58068,-1.38804 3.60168,-2.16032 5.75684,-2.16032c4.83492,0 8.76856,3.93364 8.76856,8.76856c0,0.11008 -0.00172,0.22016 -0.00688,0.33024c3.52256,1.08016 6.00624,4.38084 6.00624,8.12356c0,4.68012 -3.81152,8.49164 -8.49508,8.49164z" fill="#56597a"></path><path d="M126.57652,119.79972c-2.82424,-0.18576 -5.2546,1.76472 -5.43004,4.35676c-0.02236,0.32164 -0.00688,0.63812 0.03956,0.946c-0.54524,-0.61576 -1.35192,-1.032 -2.27728,-1.09392c-1.6942,-0.1118 -3.15792,1.00792 -3.36948,2.53012c-0.30788,-0.08428 -0.62952,-0.14104 -0.9632,-0.1634c-2.47164,-0.16168 -4.59928,1.54456 -4.75064,3.81152" fill="#fcfcfc"></path><path d="M109.82716,130.61852c-0.01032,0 -0.02064,0 -0.02924,0c-0.23736,-0.01548 -0.41624,-0.22016 -0.40076,-0.45752c0.16856,-2.50088 2.49916,-4.39632 5.20816,-4.21228c0.19952,0.01376 0.40248,0.03784 0.60716,0.0774c0.4472,-1.51016 1.99176,-2.5542 3.72552,-2.44412c0.64844,0.043 1.2556,0.23908 1.7802,0.5676c0,-0.00688 0,-0.01376 0,-0.02064c0.19092,-2.82252 2.84144,-4.93984 5.88756,-4.7558c0.23736,0.01548 0.41624,0.22016 0.40076,0.45752c-0.01548,0.23736 -0.22532,0.41796 -0.45752,0.40076c-2.60408,-0.17544 -4.81428,1.60476 -4.97252,3.956c-0.01892,0.2838 -0.00688,0.57104 0.03612,0.85312c0.02924,0.18748 -0.07052,0.37324 -0.24252,0.45408c-0.16856,0.08084 -0.37668,0.03956 -0.50396,-0.10492c-0.4902,-0.55212 -1.2126,-0.89784 -1.98488,-0.94944c-1.45512,-0.09632 -2.73308,0.85312 -2.9154,2.16032c-0.0172,0.12212 -0.086,0.23048 -0.18748,0.29928c-0.1032,0.0688 -0.2322,0.08772 -0.34916,0.05676c-0.29756,-0.07912 -0.5934,-0.13072 -0.87892,-0.14792c-2.24116,-0.1462 -4.15724,1.3846 -4.29484,3.41076c-0.01548,0.22532 -0.20468,0.39904 -0.42828,0.39904z" fill="#56597a"></path><g><path d="M152.46424,122.40724c-2.65396,-1.25044 -5.72244,-0.36636 -6.8542,1.978c-0.14104,0.29068 -0.24424,0.59168 -0.31304,0.89612" fill="#fcfcfc"></path><path d="M145.29528,125.71136c-0.03096,0 -0.06364,-0.00344 -0.09632,-0.01032c-0.2322,-0.05332 -0.37668,-0.2838 -0.32336,-0.51428c0.0774,-0.34228 0.19436,-0.67596 0.34572,-0.98728c1.23152,-2.55248 4.55972,-3.53288 7.42524,-2.18096c0.215,0.10148 0.30788,0.35776 0.2064,0.57276c-0.10148,0.21672 -0.35948,0.30444 -0.57276,0.2064c-2.43724,-1.14724 -5.25632,-0.35088 -6.28488,1.77676c-0.12384,0.25456 -0.21844,0.5246 -0.28208,0.80496c-0.04472,0.19608 -0.22188,0.33196 -0.41796,0.33196z" fill="#56597a"></path></g></g><g><path d="M51.81672,109.19764c2.9412,0 5.49368,0 5.5298,0c3.29552,0 5.96668,-2.6144 5.96668,-5.84112c0,-2.81392 -2.03304,-5.16172 -4.74032,-5.71556c0.03096,-0.24596 0.05332,-0.49536 0.05332,-0.74992c0,-3.34024 -2.76748,-6.04924 -6.17996,-6.04924c-2.01584,0 -3.79948,0.94772 -4.9278,2.40972c-0.28896,-3.71864 -3.68252,-6.5876 -7.654,-6.11288c-2.90336,0.34744 -5.30448,2.54388 -5.8394,5.35952c-0.172,0.903 -0.15308,1.77848 0.0172,2.60064c-0.77916,-0.82044 -1.88684,-1.33644 -3.12008,-1.33644c-2.25836,0 -4.1022,1.72172 -4.2484,3.8958c-1.02512,-0.22188 -2.1414,-0.20812 -3.31616,0.2236c-2.24632,0.8256 -3.84592,2.89476 -3.9388,5.24084c-0.13244,3.33164 2.58688,6.07504 5.96324,6.07504c0.25628,0 1.15756,0 1.36568,0h12.39088M41.7014,109.19764h0.56244" fill="#fcfcfc"></path><path d="M57.34652,110.05764h-5.5298c-0.47472,0 -0.86,-0.38528 -0.86,-0.86c0,-0.47472 0.38528,-0.86 0.86,-0.86h5.5298c2.81564,0 5.10668,-2.23428 5.10668,-4.98112c0,-2.34436 -1.70452,-4.39288 -4.05232,-4.87276c-0.44032,-0.08944 -0.73788,-0.50396 -0.68112,-0.94944c0.02752,-0.21156 0.04644,-0.42484 0.04644,-0.64328c0,-2.86208 -2.38736,-5.18924 -5.31996,-5.18924c-1.68044,0 -3.22844,0.7568 -4.2484,2.07604c-0.21672,0.28208 -0.58652,0.40076 -0.92708,0.29756c-0.34056,-0.10148 -0.58308,-0.40248 -0.6106,-0.7568c-0.12212,-1.57036 -0.87204,-2.99452 -2.11044,-4.01104c-1.27624,-1.04748 -2.90164,-1.51876 -4.5838,-1.31408c-2.537,0.30444 -4.63368,2.22224 -5.09636,4.66464c-0.14448,0.76196 -0.13932,1.52564 0.01376,2.26524c0.07912,0.37668 -0.1032,0.75852 -0.44204,0.9374c-0.34056,0.17888 -0.7568,0.10836 -1.0234,-0.17028c-0.6536,-0.68972 -1.54112,-1.06984 -2.49744,-1.06984c-1.78536,0 -3.27316,1.3588 -3.39012,3.09428c-0.0172,0.2494 -0.14104,0.47816 -0.34056,0.62952c-0.19952,0.15136 -0.4558,0.20468 -0.69832,0.15308c-0.98556,-0.215 -1.91092,-0.14964 -2.838,0.19092c-1.94188,0.7138 -3.29724,2.50948 -3.37636,4.46856c-0.05332,1.34504 0.43344,2.62472 1.37428,3.60512c0.97696,1.01652 2.29964,1.57552 3.72724,1.57552h13.75656c0.47472,0 0.86,0.38528 0.86,0.86c0,0.47472 -0.38528,0.86 -0.86,0.86h-13.75656c-1.87308,0 -3.68424,-0.76712 -4.96736,-2.10528c-1.26764,-1.31924 -1.9264,-3.04612 -1.85416,-4.86416c0.10492,-2.64536 1.91436,-5.06196 4.50124,-6.01312c0.94256,-0.34572 1.9178,-0.47472 2.90336,-0.39216c0.57104,-2.18096 2.59204,-3.78056 4.95704,-3.78056c0.74132,0 1.46888,0.16168 2.1328,0.46268c0.01892,-0.34228 0.0602,-0.68284 0.12556,-1.02684c0.602,-3.17168 3.30928,-5.66052 6.58244,-6.05268c2.14828,-0.25628 4.23464,0.344 5.87896,1.69248c1.14896,0.94256 1.97284,2.15688 2.40628,3.52084c1.23324,-0.97696 2.7692,-1.51704 4.39804,-1.51704c3.88204,0 7.03996,3.09944 7.03996,6.90924c0,0.0344 0,0.0688 0,0.1032c2.75716,0.8944 4.68872,3.45892 4.68872,6.364c0.00172,3.69284 -3.05988,6.6994 -6.82496,6.6994zM42.26212,110.05764h-0.56244c-0.47472,0 -0.86,-0.38528 -0.86,-0.86c0,-0.47472 0.38528,-0.86 0.86,-0.86h0.56244c0.47472,0 0.86,0.38528 0.86,0.86c0,0.47472 -0.38528,0.86 -0.86,0.86z" fill="#56597a"></path><g fill="#56597a"><path d="M54.6788,100.9554c-0.03096,0 -0.06192,-0.00344 -0.0946,-0.01032c-0.2322,-0.0516 -0.37668,-0.28208 -0.32508,-0.51428c0.0602,-0.26316 0.14964,-0.51772 0.27004,-0.75852c0.9546,-1.93156 3.58448,-2.64364 5.86348,-1.58928c0.215,0.09976 0.3096,0.35604 0.20984,0.57104c-0.09976,0.215 -0.35432,0.30788 -0.57104,0.20984c-1.85932,-0.86172 -3.9818,-0.3268 -4.73172,1.19024c-0.08944,0.17888 -0.15652,0.36808 -0.19952,0.56416c-0.04644,0.19952 -0.2236,0.33712 -0.4214,0.33712z"></path></g><g fill="#56597a"><path d="M46.62232,110.05764h-1.7286c-0.47472,0 -0.86,-0.38528 -0.86,-0.86c0,-0.47472 0.38528,-0.86 0.86,-0.86h1.7286c0.47472,0 0.86,0.38528 0.86,0.86c0,0.47472 -0.38528,0.86 -0.86,0.86z"></path></g></g><g fill="#ffffff"><path d="M81.5366,39.56h-17.0366c-0.47472,0 -0.86,-0.38528 -0.86,-0.86c0,-0.47472 0.38528,-0.86 0.86,-0.86h17.0366c0.47472,0 0.86,0.38528 0.86,0.86c0,0.47472 -0.38356,0.86 -0.86,0.86zM86.86,39.56h-1.72c-0.47472,0 -0.86,-0.38528 -0.86,-0.86c0,-0.47472 0.38528,-0.86 0.86,-0.86h1.72c0.47472,0 0.86,0.38528 0.86,0.86c0,0.47472 -0.38356,0.86 -0.86,0.86zM95.44452,43h-15.46452c-0.47472,0 -0.86,-0.38528 -0.86,-0.86c0,-0.47472 0.38528,-0.86 0.86,-0.86h15.46452c0.47472,0 0.86,0.38528 0.86,0.86c0,0.47472 -0.38528,0.86 -0.86,0.86zM76.54,43h-1.72c-0.47472,0 -0.86,-0.38528 -0.86,-0.86c0,-0.47472 0.38528,-0.86 0.86,-0.86h1.72c0.47472,0 0.86,0.38528 0.86,0.86c0,0.47472 -0.38356,0.86 -0.86,0.86zM71.38,43h-3.44c-0.47472,0 -0.86,-0.38528 -0.86,-0.86c0,-0.47472 0.38528,-0.86 0.86,-0.86h3.44c0.47472,0 0.86,0.38528 0.86,0.86c0,0.47472 -0.38356,0.86 -0.86,0.86zM81.7,46.44h-3.44c-0.47472,0 -0.86,-0.38528 -0.86,-0.86c0,-0.47472 0.38528,-0.86 0.86,-0.86h3.44c0.47472,0 0.86,0.38528 0.86,0.86c0,0.47472 -0.38528,0.86 -0.86,0.86zM86.86,30.96c-0.30444,0 -1.41556,0 -1.72,0c-0.47472,0 -0.86,0.38528 -0.86,0.86c0,0.47472 0.38528,0.86 0.86,0.86c0.30444,0 1.41556,0 1.72,0c0.47472,0 0.86,-0.38528 0.86,-0.86c0,-0.47472 -0.38528,-0.86 -0.86,-0.86zM86.86,34.4c-0.30444,0 -8.29556,0 -8.6,0c-0.47472,0 -0.86,0.38528 -0.86,0.86c0,0.47472 0.38528,0.86 0.86,0.86c0.30444,0 8.29556,0 8.6,0c0.47472,0 0.86,-0.38528 0.86,-0.86c0,-0.47472 -0.38528,-0.86 -0.86,-0.86zM95.46,37.84c-0.30444,0 -4.85556,0 -5.16,0c-0.47472,0 -0.86,0.38528 -0.86,0.86c0,0.47472 0.38528,0.86 0.86,0.86c0.30444,0 4.85556,0 5.16,0c0.47472,0 0.86,-0.38528 0.86,-0.86c0,-0.47472 -0.38528,-0.86 -0.86,-0.86z"></path></g><g fill="#ffffff"><path d="M140.18,84.28h-17.2c-0.47472,0 -0.86,-0.38528 -0.86,-0.86c0,-0.47472 0.38528,-0.86 0.86,-0.86h17.2c0.47472,0 0.86,0.38528 0.86,0.86c0,0.47472 -0.38528,0.86 -0.86,0.86zM147.06,84.28h-3.44c-0.47472,0 -0.86,-0.38528 -0.86,-0.86c0,-0.47472 0.38528,-0.86 0.86,-0.86h3.44c0.47472,0 0.86,0.38528 0.86,0.86c0,0.47472 -0.38528,0.86 -0.86,0.86zM155.66,87.72h-17.2c-0.47472,0 -0.86,-0.38528 -0.86,-0.86c0,-0.47472 0.38528,-0.86 0.86,-0.86h17.2c0.47472,0 0.86,0.38528 0.86,0.86c0,0.47472 -0.38356,0.86 -0.86,0.86zM135.02,87.72h-1.72c-0.47472,0 -0.86,-0.38528 -0.86,-0.86c0,-0.47472 0.38528,-0.86 0.86,-0.86h1.72c0.47472,0 0.86,0.38528 0.86,0.86c0,0.47472 -0.38528,0.86 -0.86,0.86zM129.645,87.72h-3.225c-0.47472,0 -0.86,-0.38528 -0.86,-0.86c0,-0.47472 0.38528,-0.86 0.86,-0.86h3.225c0.47472,0 0.86,0.38528 0.86,0.86c0,0.47472 -0.38528,0.86 -0.86,0.86zM145.34,80.84h-8.6c-0.47472,0 -0.86,-0.38528 -0.86,-0.86c0,-0.47472 0.38528,-0.86 0.86,-0.86h8.6c0.47472,0 0.86,0.38528 0.86,0.86c0,0.47472 -0.38356,0.86 -0.86,0.86zM140.18,91.16h-3.44c-0.47472,0 -0.86,-0.38528 -0.86,-0.86c0,-0.47472 0.38528,-0.86 0.86,-0.86h3.44c0.47472,0 0.86,0.38528 0.86,0.86c0,0.47472 -0.38528,0.86 -0.86,0.86z"></path></g></g></g></svg>