<svg version="1.1" xmlns="http://www.w3.org/2000/svg" xmlns:xlink="http://www.w3.org/1999/xlink"  viewBox="0,0,256,256"><g fill="none" fill-rule="nonzero" stroke="none" stroke-width="1" stroke-linecap="butt" stroke-linejoin="miter" stroke-miterlimit="10" stroke-dasharray="" stroke-dashoffset="0" font-family="none" font-weight="none" font-size="none" text-anchor="none" style="mix-blend-mode: normal"><g transform="scale(2.56,2.56)"><path d="M13,27c-1.10457,0 -2,0.89543 -2,2c0,1.10457 0.89543,2 2,2c1.10457,0 2,-0.89543 2,-2c0,-1.10457 -0.89543,-2 -2,-2z" fill="#5c3eee"></path><path d="M77,12c-0.55228,0 -1,0.44772 -1,1c0,0.55228 0.44772,1 1,1c0.55228,0 1,-0.44772 1,-1c0,-0.55228 -0.44772,-1 -1,-1z" fill="#f119e1"></path><path d="M50,13c-20.43454,0 -37,16.56546 -37,37c0,20.43454 16.56546,37 37,37c20.43454,0 37,-16.56546 37,-37c0,-20.43454 -16.56546,-37 -37,-37z" fill="#f8a2fc"></path><path d="M83,11c-2.20914,0 -4,1.79086 -4,4c0,2.20914 1.79086,4 4,4c2.20914,0 4,-1.79086 4,-4c0,-2.20914 -1.79086,-4 -4,-4z" fill="#f119e1"></path><path d="M87,22c-1.10457,0 -2,0.89543 -2,2c0,1.10457 0.89543,2 2,2c1.10457,0 2,-0.89543 2,-2c0,-1.10457 -0.89543,-2 -2,-2z" fill="#5c3eee"></path><path d="M81,74c-1.10457,0 -2,0.89543 -2,2c0,1.10457 0.89543,2 2,2c1.10457,0 2,-0.89543 2,-2c0,-1.10457 -0.89543,-2 -2,-2zM15,59c-2.20914,0 -4,1.79086 -4,4c0,2.20914 1.79086,4 4,4c2.20914,0 4,-1.79086 4,-4c0,-2.20914 -1.79086,-4 -4,-4z" fill="#fb59f4"></path><path d="M25,85c-1.10457,0 -2,0.89543 -2,2c0,1.10457 0.89543,2 2,2c1.10457,0 2,-0.89543 2,-2c0,-1.10457 -0.89543,-2 -2,-2z" fill="#5c3eee"></path><path d="M18.5,51c-1.38071,0 -2.5,1.11929 -2.5,2.5c0,1.38071 1.11929,2.5 2.5,2.5c1.38071,0 2.5,-1.11929 2.5,-2.5c0,-1.38071 -1.11929,-2.5 -2.5,-2.5z" fill="#ffffff"></path><path d="M21,66c-0.55228,0 -1,0.44772 -1,1c0,0.55228 0.44772,1 1,1c0.55228,0 1,-0.44772 1,-1c0,-0.55228 -0.44772,-1 -1,-1z" fill="#f119e1"></path><path d="M80,33c-0.55228,0 -1,0.44772 -1,1c0,0.55228 0.44772,1 1,1c0.55228,0 1,-0.44772 1,-1c0,-0.55228 -0.44772,-1 -1,-1z" fill="#ffffff"></path><g><path d="M35,72.3c-4.025,0 -7.3,-3.274 -7.3,-7.3v-30c0,-4.025 3.274,-7.3 7.3,-7.3h30c4.025,0 7.3,3.274 7.3,7.3v30c0,4.025 -3.274,7.3 -7.3,7.3z" fill="#3d72b1"></path><path d="M65,28.4c3.639,0 6.6,2.961 6.6,6.6v30c0,3.639 -2.961,6.6 -6.6,6.6h-30c-3.639,0 -6.6,-2.961 -6.6,-6.6v-30c0,-3.639 2.961,-6.6 6.6,-6.6h30M65,27h-30c-4.4,0 -8,3.6 -8,8v30c0,4.4 3.6,8 8,8h30c4.4,0 8,-3.6 8,-8v-30c0,-4.4 -3.6,-8 -8,-8z" fill="#472b29"></path></g><g fill="#3d72b1"><path d="M68.5,47.875v1.75v14.375c0,2.475 -2.025,4.5 -4.5,4.5h-28c-2.475,0 -4.5,-2.025 -4.5,-4.5v-28c0,-2.475 2.025,-4.5 4.5,-4.5h25.375h2.625c2.475,0 4.5,2.025 4.5,4.5v3.375v2v1v1.125v2.875v1.5"></path></g><g fill="#472b29"><path d="M68.5,47.375c-0.276,0 -0.5,-0.224 -0.5,-0.5v-3.875c0,-0.276 0.224,-0.5 0.5,-0.5c0.276,0 0.5,0.224 0.5,0.5v3.875c0,0.276 -0.224,0.5 -0.5,0.5z"></path></g><g fill="#472b29"><path d="M68.5,40.5c-0.276,0 -0.5,-0.224 -0.5,-0.5v-2c0,-0.276 0.224,-0.5 0.5,-0.5c0.276,0 0.5,0.224 0.5,0.5v2c0,0.276 -0.224,0.5 -0.5,0.5z"></path></g><g fill="#472b29"><path d="M64,69h-28c-2.757,0 -5,-2.243 -5,-5v-28c0,-2.757 2.243,-5 5,-5h25.375c0.276,0 0.5,0.224 0.5,0.5c0,0.276 -0.224,0.5 -0.5,0.5h-25.375c-2.206,0 -4,1.794 -4,4v28c0,2.206 1.794,4 4,4h28c2.206,0 4,-1.794 4,-4v-14.375c0,-0.276 0.224,-0.5 0.5,-0.5c0.276,0 0.5,0.224 0.5,0.5v14.375c0,2.757 -2.243,5 -5,5z"></path></g><g fill="#fffef4"><path d="M60.863,53.81c2.317,2.413 2.801,3.59 2.878,3.733c0.961,1.792 -1.063,1.927 -1.063,1.927l-3.871,0.064c0,0 -0.834,0.186 -1.929,-0.664c-1.452,-1.106 -2.814,-4.004 -3.884,-3.633c-1.076,0.385 -1.044,2.998 -1.044,2.998c0,0 0.006,0.457 -0.236,0.757c-0.267,0.314 -0.789,0.286 -0.789,0.286h-1.738c0,0 -3.826,0.357 -7.194,-3.576c-3.674,-4.29 -6.914,-12.748 -6.914,-12.748c0,0 -0.185,-0.535 0.013,-0.807c0.229,-0.3 0.853,-0.314 0.853,-0.314l4.145,-0.021c0,0 0.388,0.079 0.668,0.307c0.229,0.186 0.363,0.542 0.363,0.542c0,0 0.668,1.906 1.553,3.619c1.732,3.355 2.54,4.09 3.126,3.733c0.859,-0.528 0.598,-4.739 0.598,-4.739c0,0 0.019,-1.535 -0.433,-2.22c-0.344,-0.521 -0.993,-0.678 -1.286,-0.721c-0.236,-0.036 0.153,-0.642 0.649,-0.914c0.745,-0.407 2.063,-0.435 3.616,-0.414c1.21,0.014 1.56,0.1 2.031,0.228c1.432,0.385 0.949,1.877 0.949,5.46c0,1.149 -0.185,2.762 0.554,3.298c0.318,0.228 1.095,0.036 3.031,-3.662c0.923,-1.756 1.611,-3.812 1.611,-3.812c0,0 0.153,-0.371 0.388,-0.528c0.242,-0.157 0.567,-0.107 0.567,-0.107l4.361,-0.036c0,0 1.305,-0.171 1.522,0.493c0.223,0.692 -0.49,2.32 -2.273,4.982c-2.929,4.369 -3.254,3.962 -0.822,6.489z"></path></g></g></g></svg>